<?xml version="1.0" encoding="UTF-8"?>
<svg id="Layer_1" data-name="Layer 1" xmlns="http://www.w3.org/2000/svg" viewBox="0 0 83.7 87.84">
  <defs>
    <style>
      .cls-1 {
        fill: #f4eafa;
      }

      .cls-2 {
        fill: #528fd8;
      }

      .cls-3 {
        fill: #9be69d;
      }

      .cls-4 {
        fill: #ffd15b;
      }

      .cls-5 {
        fill: #faf7f7;
      }

      .cls-6 {
        fill: #679868;
      }

      .cls-7 {
        fill: #ffe177;
      }

      .cls-8 {
        fill: #6fd7a3;
      }

      .cls-9 {
        fill: #dedbee;
      }

      .cls-10 {
        fill: #010101;
      }

      .cls-11 {
        fill: #4a80c2;
      }

      .cls-12 {
        fill: #0573ce;
      }
    </style>
  </defs>
  <path d="m33.27,0c.87.44,1.83.76,2.59,1.34,1.43,1.09,1.98,2.69,1.98,4.45.01,3.77,0,7.55,0,11.32,0,.31,0,.62,0,.99,2.79.42,4.85,1.93,6.45,4.2,1.3-2.01,3.03-3.36,5.27-4.02.61-.18,1.26-.28,1.9-.28,8.61-.02,17.21-.03,25.82-.02.98,0,1.45.56,1.46,1.65.01,2,0,4,0,6.06,1.82.08,3.38.71,4.25,2.35.4.76.68,1.69.69,2.55.04,14.61.05,29.22,0,43.83,0,2.41-.75,3.84-3.39,4.88-.45.18-1,.15-1.5.15-3.46.01-6.92,0-10.38,0-.31,0-.61,0-.99,0,0,.95,0,1.8,0,2.65,0,3.3-2.41,5.73-5.65,5.72-9.03-.02-18.07-.02-27.1-.02-2.41,0-4.66-2.12-4.96-4.36-.17-1.26-.03-2.56-.03-3.99h-.96c-6.29,0-12.58,0-18.87,0-2.49,0-4.01-1.11-4.74-3.43-.09-.29-.12-.6-.12-.9,0-12.98,0-25.96,0-38.94,0-.26,0-.51,0-.63-.94-.45-1.85-.77-2.65-1.28C.75,33.27,0,31.78,0,29.91,0,21.59,0,13.27,0,4.95,0,3.22,1.58.66,4.11.17,4.23.14,4.34.06,4.45,0c.86,0,1.72,0,2.57,0,.24.4.48.81.71,1.21.02.85-.44,1.27-1.23,1.39-.14,0-.28-.02-.43-.03-2.15-.2-3.57,1.07-3.54,3.48.09,7.96.03,15.93.05,23.9,0,.32.05.67.18.97.59,1.39,1.78,2.04,3.59,1.75.31.02.62.05.94.05,4.23,0,8.46.05,12.69-.03,1.07-.02,1.7.46,2.28,1.19,1.48,1.86,2.96,3.73,4.59,5.79.16-.47.34-.77.35-1.07.03-1.4,0-2.8.02-4.2,0-1.41.26-1.66,1.63-1.67,1,0,2-.06,3,.01,2.18.16,3.45-1.44,3.44-3.42-.03-7.77-.02-15.54,0-23.31,0-2.11-1.02-3.42-3.42-3.42-6.34-.01-12.69-.01-19.03,0-.89,0-1.38-.37-1.54-1.21C11.18.65,11.74.37,12.17,0,19.21,0,26.24,0,33.27,0Zm2.73,55.13c-2.84-.11-3.8.81-3.8,3.66,0,4.35,0,8.69,0,13.04,0,3.46.01,6.92,0,10.38,0,.94.27,1.68.95,2.35.9.88,1.97.7,3.03.68.23,0,.46.03.68.03,8.32,0,16.63-.03,24.94.03,1.55.01,3.05-1.41,3.05-3.03-.02-8.03,0-16.06-.01-24.09,0-.94-.25-1.85-1.09-2.33-.66-.37-1.45-.68-2.19-.69-4.8-.06-9.6-.02-14.4-.05-.51,0-1.2-.16-1.51-.51-1.31-1.51-2.5-3.12-3.75-4.68-.44-.55-.94-1.05-1.42-1.58-.08.04-.15.08-.23.12,0,.3,0,.61,0,.91,0,1.37,0,2.74,0,4.11,0,1.17-.48,1.63-1.66,1.64-.8,0-1.6.01-2.4.02-.07,0-.13,0-.2,0Zm-6.5,20.52c.05-.54.1-1.07.16-1.67-.49,0-.8,0-1.11,0-5.46,0-10.92,0-16.38,0-2.11,0-2.24-.13-2.24-2.2,0-11.69,0-23.38,0-35.07,0-.4-.02-.8-.03-1.2-.04-.05-.09-.09-.13-.14h-2.23c0,.28,0,.48,0,.68,0,12.74,0,25.48,0,38.22,0,.23.02.46.04.68.08,1.28.82,1.93,2.25,1.93,6.33,0,12.67,0,19,0,.22,0,.43-.04.67-.07v-1.18Zm37.94-.01v1.23c4.04,0,8.02.03,12.01-.02.87-.01,1.5-.88,1.48-1.73.02-.04.03-.09.04-.13.04-.06.08-.12.12-.18.01-.2.03-.4.03-.6,0-14.46,0-28.92,0-43.38,0-.14.01-.29,0-.43-.12-1.06-.87-2.31-2.39-1.98v.92c0,7.49,0,14.97,0,22.46,0,1.2-.24,1.5-1.38,1.76-.99-.22-1.19-.48-1.19-1.57,0-10.17,0-20.34,0-30.51,0-.3,0-.6,0-.92-6.83,0-13.54,0-20.25,0-1.26,0-2.51.02-3.77.04-.53.05-1.06.07-1.58.16-2.7.47-4.89,3-4.92,5.69-.06,7.46,0,14.92-.06,22.38-.01,1.24.29,2.19,1.17,2.99.29.26.61.67.93.68,1.48.06,2.97,0,4.45,0,3.17.01,6.34-.03,9.51.08,1.03.04,2.14.29,3.03.78,1.89,1.03,2.74,2.79,2.75,4.94,0,1.76,0,3.53,0,5.33h8.73c0-1.72.04-3.4-.02-5.08-.03-.94.37-1.41,1.21-1.62,1.1.24,1.37.51,1.37,1.94.01,4.45,0,8.9,0,13.35,0,1.3-.44,1.75-1.71,1.75-2.88,0-5.76,0-8.64,0-.3,0-.61,0-.93,0v1.65Zm-24.42-28.97c0-6.46.03-12.92.01-19.37,0-.74-.11-1.52-.34-2.22-.76-2.32-2.41-3.71-4.84-4.38v.95c0,2.57.02,5.14,0,7.72-.02,2.89-1.46,5.24-4.58,5.8-1.15.21-2.34.19-3.59.27,0,1.19-.04,2.42.01,3.64.06,1.38-.72,2.29-1.87,2.77-1.14.47-2.33.18-3.17-.82-1.06-1.27-2.08-2.56-3.06-3.9-.9-1.23-1.83-2.08-3.58-1.87-1.79.21-3.63.05-5.44.05v28.32h17.07c0-.83,0-1.63,0-2.42.01-1.4-.08-2.81.06-4.19.23-2.19,2.29-4.2,4.52-4.35,1.09-.07,2.18-.17,3.34-.26,0-1.12,0-2.25,0-3.39,0-1.22.46-2.32,1.51-2.79,1.12-.51,2.4-.54,3.44.44.14.11.27.22.41.33.03-.11.06-.22.1-.33Zm-30.47,19.6v5.08h17.02v-5.08H12.55Zm54.94.01v5.11h8.62v-5.11h-8.62Z"/>
  <path class="cls-7" d="m7.74,1.21c1.18.05,2.36.1,3.55.16.16.85.65,1.22,1.54,1.21,6.34-.02,12.69-.02,19.03,0,2.41,0,3.43,1.31,3.42,3.42-.02,7.77-.02,15.54,0,23.31,0,1.98-1.26,3.58-3.44,3.42-.99-.07-2-.02-3-.01-1.38.01-1.62.26-1.63,1.67,0,1.4.02,2.8-.02,4.2,0,.3-.19.6-.35,1.07-1.63-2.06-3.11-3.93-4.59-5.79-.58-.73-1.21-1.21-2.28-1.19-4.23.07-8.46.03-12.69.03-.31,0-.62-.03-.94-.05-1.17-1.77-.86-3.77-.87-5.72-.01-7.06,0-14.12-.02-21.18,0-1.2.3-2.24,1.04-3.17.79-.12,1.25-.54,1.23-1.39Zm19.59,24.74c-.07-.24-.14-.48-.22-.71-.75-2.04-1.5-4.08-2.27-6.1-1.39-3.64-2.8-7.28-4.17-10.93-.32-.86-.82-1.34-1.76-1.35-.97-.01-1.38.66-1.68,1.4-.68,1.7-1.31,3.43-1.96,5.15-1.49,3.96-2.98,7.93-4.48,11.89-.3.8-.11,1.71.45,1.95.68.3,1.61-.13,1.93-.93.36-.91.74-1.81,1.02-2.74.14-.48.34-.64.82-.64,2.66.01,5.32,0,7.97.03.24,0,.58.28.68.51.4.92.71,1.87,1.06,2.81.28.76.91,1.14,1.65.97.67-.15.98-.6.98-1.31Z"/>
  <path class="cls-3" d="m36.2,55.13c.8,0,1.6-.01,2.4-.02,1.18-.01,1.65-.47,1.66-1.64.01-1.37,0-2.74,0-4.11,0-.3,0-.61,0-.91.08-.04.15-.08.23-.12.47.52.97,1.03,1.42,1.58,1.25,1.56,2.44,3.17,3.75,4.68.3.35.99.51,1.51.51,4.8.04,9.6,0,14.4.05.74,0,1.53.32,2.19.69.85.48,1.09,1.39,1.09,2.33,0,8.03,0,16.06.01,24.09,0,1.62-1.5,3.04-3.05,3.03-8.31-.06-16.63-.03-24.94-.03-.23,0-.46-.02-.68-.03-.85-.96-1.2-2.08-1.2-3.37.02-7.8.02-15.6,0-23.41,0-1.19.34-2.24,1.04-3.19.06-.05.12-.09.18-.14Zm13.19,14.09c0-2.44,0-4.87,0-7.29,0-.3-.09-.6-.13-.91-.11-.85-.73-1.06-1.42-.95-.69.1-1.03.59-1.02,1.32.01,2.09.02,4.17,0,6.26-.02,1.87.38,1.66-1.78,1.63-.21,0-.57-.35-.59-.57-.33-3.16-1.58-5.87-3.84-8.11-.7-.7-1.37-.77-1.9-.23-.66.68-.55,1.21.09,2.06.9,1.2,1.75,2.46,2.43,3.8.46.91.84,1.96.55,3.06-1.3.04-1.71.3-1.81,1.11-.09.71.53,1.24,1.92,1.63-.38,2.32-1.29,4.39-2.93,6.09-.86.9-.95,1.46-.25,2.16.59.6,1.19.5,2.02-.31,2.25-2.22,3.37-4.97,3.79-8.03h2.33c0,2.51,0,4.96,0,7.42,0,1.06.94,1.59,1.89,1.11.64-.33.67-.92.68-1.52,0-2.33,0-4.67,0-7.02h2.09c.35,1.21.63,2.38,1.03,3.5.67,1.85,1.73,3.47,3.13,4.84.53.52,1.38.5,1.85.03.44-.44.41-1.3-.06-1.83-1.54-1.74-2.72-3.66-3.11-6.02-.11-.64.02-.72.57-.75.71-.03,1.21-.27,1.22-1.17,0-.88-.46-1.2-1.17-1.2-.73,0-.84-.38-.72-.92.51-2.31,1.52-4.37,3.13-6.12.58-.63.62-1.49.11-1.95-.54-.49-1.35-.42-1.97.22-1.9,1.96-3.11,4.32-3.68,6.97-.39,1.84-.32,1.86-2.24,1.76-.03,0-.05-.02-.18-.07Z"/>
  <path class="cls-5" d="m52.14,20.59c1.26-.01,2.51-.04,3.77-.04,6.71,0,13.43,0,20.25,0,0,.32,0,.62,0,.92,0,10.17,0,20.34,0,30.51,0,1.09.2,1.35,1.19,1.57,0,1.12,0,2.25,0,3.37-.85.21-1.25.68-1.21,1.62.06,1.68.02,3.36.02,5.08h-8.73c0-1.8,0-3.57,0-5.33-.01-2.15-.86-3.91-2.75-4.94-.89-.49-2.01-.74-3.03-.78-3.17-.11-6.34-.06-9.51-.08,0-1.31,0-2.61,0-3.92.31,0,.63-.03.94-.03,2.51,0,5.02,0,7.53,0,.85,0,1.45-.49,1.49-1.16.05-.86-.51-1.4-1.49-1.41-2.82-.02-5.64-.02-8.47-.03,0-1,0-1.99,0-2.99.31-.01.63-.04.94-.04,6.11,0,12.22,0,18.33,0,1.15,0,1.59-.46,1.49-1.51-.06-.66-.64-1.06-1.58-1.06-4.34,0-8.68,0-13.02,0-2.05,0-4.11-.02-6.16-.04,0-.97,0-1.95,0-2.92.31-.02.62-.04.94-.05,6.11,0,12.21,0,18.32,0,1.07,0,1.52-.41,1.5-1.3-.02-.9-.44-1.26-1.5-1.27-1.48,0-2.97,0-4.45,0-4.94,0-9.87-.02-14.81-.03,0-.99,0-1.98,0-2.98.14-.01.28-.03.43-.03,6.25,0,12.5,0,18.75,0,1.06,0,1.58-.44,1.58-1.31,0-.85-.51-1.26-1.58-1.26-1.2,0-2.4,0-3.6,0-5.19-.01-10.39-.02-15.58-.03v-2.98c.31-.01.63-.03.94-.03,5.91,0,11.82,0,17.73,0,.23,0,.46,0,.69,0,.98-.02,1.4-.39,1.4-1.26,0-.82-.48-1.3-1.4-1.31-2.31-.01-4.63,0-6.94,0-4.14,0-8.28-.02-12.42-.03v-2.89Z"/>
  <path class="cls-5" d="m42.52,46.66c-1.04-.98-2.33-.95-3.44-.44-1.05.48-1.52,1.58-1.51,2.79,0,1.14,0,2.27,0,3.39-1.16.09-2.25.19-3.34.26-2.23.15-4.29,2.16-4.52,4.35-.15,1.38-.05,2.79-.06,4.19,0,.79,0,1.59,0,2.42H12.56v-28.32c1.81,0,3.65.17,5.44-.05,1.75-.21,2.68.64,3.58,1.87.98,1.33,2,2.63,3.06,3.9.84,1,2.03,1.29,3.17.82,1.15-.48,1.93-1.4,1.87-2.77-.05-1.22-.01-2.44-.01-3.64,1.24-.09,2.44-.07,3.59-.27,3.13-.56,4.56-2.91,4.58-5.8.02-2.57,0-5.14,0-7.72v-.95c2.44.67,4.08,2.06,4.84,4.38.23.7.34,1.48.34,2.22.02,6.46,0,12.92-.01,19.37-.17,0-.34,0-.5,0Zm-16.79,2.38c2.97,0,5.94,0,8.92,0,.99,0,1.53-.46,1.55-1.28.02-.76-.59-1.29-1.53-1.29-5.94,0-11.89,0-17.83,0-.94,0-1.56.53-1.56,1.28,0,.69.7,1.28,1.55,1.28,2.97,0,5.94,0,8.92,0Zm-3.94,5.59c1.71,0,3.43,0,5.14,0,.83,0,1.52-.58,1.54-1.24.03-.69-.69-1.32-1.56-1.32-3.34-.01-6.68-.01-10.02,0-.89,0-1.6.58-1.63,1.26-.03.71.68,1.3,1.65,1.31,1.63.01,3.25,0,4.88,0Zm-3.02-11.23h0c.68,0,1.37,0,2.05,0,.78,0,1.28-.3,1.35-1.16.06-.76-.35-1.31-.98-1.34-1.64-.08-3.29,0-4.93.04-.78.02-.97.72-.96,1.24.02.66.44,1.2,1.24,1.2.74,0,1.48,0,2.23,0Zm14.45-2.4h0c-.66,0-1.31.02-1.97-.01-.76-.04-.96.48-1.05,1.05-.1.58.46,1.34.99,1.35,1.28.03,2.57.05,3.85,0,.73-.03,1.19-.65,1.15-1.38-.05-.8-.53-1.04-1.26-1.01-.57.03-1.14,0-1.71,0Z"/>
  <path class="cls-1" d="m52.14,37.39c0,.97,0,1.95,0,2.92-.62.02-1.24,0-1.86.06-.78.06-1.26.6-1.23,1.3.03.68.59,1.21,1.31,1.24.59.03,1.19.03,1.78.05,0,1,0,1.99,0,2.99-.59.01-1.19,0-1.78.03-.78.04-1.33.6-1.31,1.32.02.69.56,1.21,1.31,1.24.59.03,1.19.03,1.78.04,0,1.31,0,2.61,0,3.92-1.48.01-2.97.07-4.45,0-.32-.01-.64-.42-.93-.68-.88-.8-1.18-1.75-1.17-2.99.07-7.46,0-14.92.06-22.38.02-2.69,2.21-5.22,4.92-5.69.52-.09,1.05-.11,1.58-.16,0,.96,0,1.93,0,2.89-.62.01-1.25,0-1.87.05-.76.05-1.26.62-1.22,1.32.03.68.59,1.21,1.31,1.23.59.02,1.19.03,1.78.04,0,.99,0,1.99,0,2.98-.6.01-1.2,0-1.8.04-.76.04-1.29.59-1.29,1.28,0,.71.51,1.23,1.29,1.28.6.03,1.2.03,1.8.04,0,.99,0,1.98,0,2.98-.65.02-1.31.01-1.96.07-.71.06-1.12.49-1.12,1.2,0,.67.26,1.21,1.04,1.27.68.05,1.36.08,2.04.12Z"/>
  <path class="cls-2" d="m77.36,56.93c0-1.12,0-2.25,0-3.37,1.14-.26,1.38-.56,1.38-1.76,0-7.49,0-14.97,0-22.46v-.92c1.52-.34,2.26.92,2.39,1.98.02.14,0,.29,0,.43,0,14.46,0,28.92,0,43.38,0,.2-.02.4-.03.6-.04.06-.08.12-.12.18,0,.05-.02.09-.04.13-.86.18-1.71.49-2.57.51-3.64.05-7.28.02-10.92.01v-1.65c.33,0,.63,0,.93,0,2.88,0,5.76,0,8.64,0,1.27,0,1.71-.46,1.71-1.75,0-4.45,0-8.9,0-13.35,0-1.42-.28-1.7-1.37-1.94Z"/>
  <path class="cls-2" d="m9.91,35.51c0,.4.03.8.03,1.2,0,11.69,0,23.38,0,35.07,0,2.07.13,2.2,2.24,2.2,5.46,0,10.92,0,16.38,0,.31,0,.62,0,1.11,0-.06.59-.11,1.13-.16,1.67-6.3,0-12.6.03-18.89-.04-1.01-.01-2.02-.43-3.03-.66-.01-.23-.04-.46-.04-.68,0-12.74,0-25.48,0-38.22,0-.2,0-.39,0-.68h2.23s.09.09.13.14Z"/>
  <path class="cls-9" d="m12.55,66.25h17.02v5.08H12.55v-5.08Z"/>
  <path class="cls-4" d="m6.51,2.6c-.75.92-1.05,1.97-1.04,3.17.03,7.06,0,14.12.02,21.18,0,1.94-.31,3.95.87,5.72-1.8.29-3-.36-3.59-1.75-.13-.3-.18-.65-.18-.97-.01-7.97.05-15.93-.05-23.9-.03-2.42,1.39-3.68,3.54-3.48.14.01.28.02.43.03Z"/>
  <path class="cls-8" d="m36.02,55.26c-.7.95-1.04,2-1.04,3.19.01,7.8.02,15.6,0,23.41,0,1.29.35,2.41,1.2,3.37-1.06.02-2.14.2-3.03-.68-.68-.67-.96-1.41-.95-2.35.02-3.46,0-6.92,0-10.38,0-4.35,0-8.69,0-13.04,0-2.85.95-3.77,3.8-3.66,0,.05,0,.09.02.14Z"/>
  <path class="cls-9" d="m67.49,66.27h8.62v5.11h-8.62v-5.11Z"/>
  <path class="cls-12" d="m7.58,74.95c1.01.23,2.02.65,3.03.66,6.3.06,12.59.03,18.89.04,0,.37,0,.74,0,1.18-.24.02-.45.07-.67.07-6.33,0-12.67,0-19,0-1.44,0-2.18-.65-2.25-1.93Z"/>
  <path class="cls-12" d="m67.44,75.63c3.64,0,7.28.04,10.92-.01.86-.01,1.71-.33,2.57-.51.02.86-.61,1.72-1.48,1.73-3.98.05-7.97.02-12.01.02v-1.23Z"/>
  <path class="cls-1" d="m42.52,46.66c.17,0,.34,0,.5,0-.03.11-.06.22-.1.33-.14-.11-.27-.22-.41-.33Z"/>
  <path class="cls-11" d="m9.91,35.51s-.09-.09-.13-.14c.04.05.09.09.13.14Z"/>
  <path class="cls-6" d="m36.02,55.26s-.02-.09-.02-.14c.07,0,.13,0,.2,0-.06.05-.12.09-.18.14Z"/>
  <path class="cls-11" d="m80.97,74.97c.04-.06.08-.12.12-.18-.04.06-.08.12-.12.18Z"/>
  <path class="cls-10" d="m27.33,25.95c0,.71-.31,1.16-.98,1.31-.74.17-1.36-.22-1.65-.97-.35-.94-.66-1.89-1.06-2.81-.1-.23-.44-.51-.68-.51-2.66-.04-5.32-.02-7.97-.03-.47,0-.68.16-.82.64-.27.93-.65,1.84-1.02,2.74-.32.8-1.24,1.23-1.93.93-.56-.25-.75-1.16-.45-1.95,1.5-3.96,2.99-7.93,4.48-11.89.65-1.72,1.28-3.44,1.96-5.15.3-.74.71-1.41,1.68-1.4.94.01,1.44.5,1.76,1.35,1.37,3.65,2.79,7.28,4.17,10.93.77,2.03,1.52,4.07,2.27,6.1.09.23.15.47.22.71Zm-4.83-5.61c-1.15-3.06-2.27-6.05-3.4-9.05-.08,0-.16,0-.24,0-1.14,2.99-2.27,5.98-3.44,9.05h7.07Z"/>
  <path class="cls-10" d="m49.4,69.22c.13.05.15.07.18.07,1.92.1,1.85.08,2.24-1.76.57-2.66,1.77-5.01,3.68-6.97.62-.64,1.43-.7,1.97-.22.51.46.47,1.32-.11,1.95-1.62,1.75-2.62,3.81-3.13,6.12-.12.54,0,.92.72.92.72,0,1.18.33,1.17,1.2,0,.89-.51,1.13-1.22,1.17-.55.03-.67.11-.57.75.39,2.36,1.57,4.28,3.11,6.02.47.53.5,1.39.06,1.83-.47.47-1.32.49-1.85-.03-1.4-1.38-2.46-3-3.13-4.84-.41-1.12-.68-2.29-1.03-3.5h-2.09c0,2.35,0,4.69,0,7.02,0,.59-.04,1.19-.68,1.52-.95.48-1.88-.05-1.89-1.11-.01-2.45,0-4.91,0-7.42h-2.33c-.42,3.06-1.54,5.81-3.79,8.03-.82.81-1.43.91-2.02.31-.69-.7-.61-1.27.25-2.16,1.64-1.71,2.55-3.78,2.93-6.09-1.39-.39-2-.91-1.92-1.63.1-.81.51-1.07,1.81-1.11.29-1.1-.09-2.14-.55-3.06-.67-1.34-1.53-2.6-2.43-3.8-.63-.85-.75-1.38-.09-2.06.53-.54,1.2-.47,1.9.23,2.26,2.24,3.52,4.95,3.84,8.11.02.22.39.57.59.57,2.16.03,1.76.24,1.78-1.63.02-2.09.01-4.17,0-6.26,0-.73.34-1.22,1.02-1.32.69-.1,1.31.1,1.42.95.04.3.13.6.13.91.01,2.42,0,4.85,0,7.29Z"/>
  <path d="m52.14,42.95c-.59-.01-1.19-.02-1.78-.05-.72-.03-1.28-.56-1.31-1.24-.03-.71.44-1.24,1.23-1.3.62-.05,1.24-.04,1.86-.06,2.05.01,4.11.03,6.16.04,4.34,0,8.68,0,13.02,0,.94,0,1.51.4,1.58,1.06.1,1.06-.34,1.51-1.49,1.51-6.11,0-12.22,0-18.33,0-.31,0-.63.02-.94.04Z"/>
  <path d="m52.14,26.13c-.59-.01-1.19-.02-1.78-.04-.72-.03-1.27-.55-1.31-1.23-.03-.7.47-1.26,1.22-1.32.62-.04,1.24-.03,1.87-.05,4.14.01,8.28.03,12.42.03,2.31,0,4.63,0,6.94,0,.92,0,1.4.48,1.4,1.31,0,.87-.42,1.24-1.4,1.26-.23,0-.46,0-.69,0-5.91,0-11.82,0-17.73,0-.31,0-.63.02-.94.03Z"/>
  <path d="m52.14,37.39c-.68-.04-1.36-.07-2.04-.12-.78-.06-1.04-.6-1.04-1.27,0-.71.41-1.14,1.12-1.2.65-.05,1.31-.05,1.96-.07,4.94.01,9.87.02,14.81.03,1.48,0,2.97,0,4.45,0,1.06,0,1.48.38,1.5,1.27.02.89-.43,1.29-1.5,1.3-6.11,0-12.21,0-18.32,0-.31,0-.62.03-.94.05Z"/>
  <path d="m52.14,31.75c-.6-.01-1.2,0-1.8-.04-.78-.05-1.3-.57-1.29-1.28,0-.69.54-1.23,1.29-1.28.6-.04,1.2-.03,1.8-.04,5.19.01,10.39.02,15.58.03,1.2,0,2.4,0,3.6,0,1.07,0,1.58.41,1.58,1.26,0,.86-.52,1.31-1.58,1.31-6.25,0-12.5,0-18.75,0-.14,0-.28.02-.43.03Z"/>
  <path d="m52.14,48.57c-.59-.01-1.19-.01-1.78-.04-.75-.03-1.29-.55-1.31-1.24-.02-.72.53-1.29,1.31-1.32.59-.03,1.19-.02,1.78-.03,2.82,0,5.64.01,8.47.03.98,0,1.55.55,1.49,1.41-.04.67-.64,1.16-1.49,1.16-2.51,0-5.02,0-7.53,0-.31,0-.63.02-.94.03Z"/>
  <path d="m25.73,49.04c-2.97,0-5.94,0-8.92,0-.85,0-1.55-.6-1.55-1.28,0-.76.62-1.28,1.56-1.28,5.94,0,11.89,0,17.83,0,.94,0,1.55.52,1.53,1.29-.02.81-.56,1.28-1.55,1.28-2.97,0-5.94,0-8.92,0Z"/>
  <path d="m21.79,54.62c-1.63,0-3.25,0-4.88,0-.96,0-1.68-.59-1.65-1.31.03-.68.73-1.25,1.63-1.26,3.34-.01,6.68-.01,10.02,0,.87,0,1.59.64,1.56,1.32-.02.66-.71,1.23-1.54,1.24-1.71.01-3.43,0-5.14,0Z"/>
  <path class="cls-10" d="m18.77,43.4c-.74,0-1.48,0-2.23,0-.8,0-1.22-.54-1.24-1.2-.01-.53.18-1.22.96-1.24,1.64-.05,3.29-.12,4.93-.04.63.03,1.04.58.98,1.34-.07.86-.57,1.16-1.35,1.16-.68,0-1.37,0-2.05,0h0Z"/>
  <path class="cls-10" d="m33.22,41c.57,0,1.14.02,1.71,0,.73-.03,1.21.21,1.26,1.01.04.73-.42,1.36-1.15,1.38-1.28.05-2.57.03-3.85,0-.53-.01-1.09-.77-.99-1.35.1-.56.3-1.08,1.05-1.05.65.03,1.31,0,1.97,0h0Z"/>
  <path class="cls-7" d="m22.5,20.34h-7.07c1.16-3.07,2.3-6.06,3.44-9.05.08,0,.16,0,.24,0,1.13,2.99,2.25,5.99,3.4,9.05Z"/>
</svg>